<svg width="131" height="63" viewBox="0 0 131 63" fill="none" xmlns="http://www.w3.org/2000/svg">
<path fill-rule="evenodd" clip-rule="evenodd" d="M90.9216 0H77.0752C76.4823 1.2164 76.3254 3.11199 76.1671 5.03284C46.5233 5.28111 53.4219 2.72289 45.1319 13.5794C42.9057 16.4947 40.392 19.4046 38.1725 22.5256C36.2754 25.193 25.2513 39.435 24.8673 40.7872L31.5085 41.0513L54.1589 11.2046C56.4999 12.3272 73.8551 35.0098 77.0638 38.6984C79.9933 42.0663 96.0815 39.2883 99.8409 38.5539C107.223 37.1119 112.643 34.9133 119.155 32.3289L101.67 9.14257C98.7387 5.23378 99.8769 6.0374 91.463 5.91269L90.9216 0Z" fill="#F42046"/>
<path fill-rule="evenodd" clip-rule="evenodd" d="M80.4495 52.0435C61.5231 52.0435 47.3348 45.7282 27.3528 45.7282C17.5808 45.7282 3.53417 47.9554 0.49649 54.7115C5.92717 51.6561 9.18535 49.9124 17.5507 49.8813C39.3137 49.8002 51.1578 60.9073 72.6931 62.58C85.956 63.6103 100.18 59.4014 109.237 53.6943C117.172 48.6944 128.601 38.7701 130.597 29.6245L129.415 30.7063C129.121 30.993 128.661 31.4684 128.394 31.7553C125.056 35.3444 125.829 34.904 121.437 38.6743C111.142 47.5113 94.7796 52.0435 80.4495 52.0435Z" fill="#A9ACAF"/>
<path fill-rule="evenodd" clip-rule="evenodd" d="M4.72833 42.4856C12.5597 41.9856 10.9367 42.1848 14.7293 37.6598C18.2737 33.4308 33.2512 14.6257 35.0852 13.5248C37.5672 15.2009 37.5244 16.539 39.8709 17.4088C41.0802 15.6811 45.3111 10.6459 45.8419 8.83262C42.7902 8.69875 39.6597 8.71328 36.5989 8.678C32.1416 8.62673 33.0188 9.36444 30.6656 12.0053C27.7549 15.2715 24.8161 18.4696 21.7855 22.1222C20.309 23.902 19.0821 25.3375 17.5944 27.1803C16.1381 28.9843 14.7085 30.3575 13.2497 32.0856C11.5221 34.1317 5.66544 40.3442 4.72833 42.4856Z" fill="#F42046"/>
<path fill-rule="evenodd" clip-rule="evenodd" d="M55.7179 38.3071L60.8352 38.3834L60.9771 30.7939L55.753 30.7671L55.7179 38.3071Z" fill="#A9ACAF"/>
<path fill-rule="evenodd" clip-rule="evenodd" d="M49.0301 38.3742L53.9266 38.3358L54.0922 30.865L49.0171 30.7134L49.0301 38.3742Z" fill="#A9ACAF"/>
<path fill-rule="evenodd" clip-rule="evenodd" d="M55.6995 29.0188L60.8602 29.0903C61.3158 24.763 59.9209 21.9838 55.868 21.7505L55.6995 29.0188Z" fill="#A9ACAF"/>
<path fill-rule="evenodd" clip-rule="evenodd" d="M49.1061 29.0501L53.9801 29.0393L54.001 21.781C50.0753 21.9291 48.7017 24.8017 49.1061 29.0501Z" fill="#A9ACAF"/>
</svg>
