<svg width="30" height="30" viewBox="0 0 30 30" fill="none" xmlns="http://www.w3.org/2000/svg">
<path d="M29.8039 0H0V30H29.8039V0Z" fill="#0084B1"/>
<path d="M7.01473 4.55628C8.37979 4.55739 9.50561 5.69227 9.50267 7.07315C9.4994 8.51907 8.30733 9.60886 6.99793 9.57746C5.66983 9.60452 4.50267 8.48794 4.50293 7.06361C4.50293 5.6822 5.63314 4.55522 7.01473 4.55628Z" fill="white"/>
<path d="M8.46447 25.4407H5.53981C5.16024 25.4407 4.85254 25.131 4.85254 24.7489V12.1901C4.85254 11.808 5.16024 11.4983 5.53981 11.4983H8.46447C8.84404 11.4983 9.15174 11.808 9.15174 12.1901V24.749C9.15167 25.131 8.84404 25.4407 8.46447 25.4407Z" fill="white"/>
<path d="M25.302 15.9095C25.302 13.2766 23.1816 11.1422 20.5659 11.1422H19.8158C18.3847 11.1422 17.1205 11.8609 16.36 12.9595C16.2771 13.0792 16.2003 13.2036 16.1298 13.3319C16.1054 13.3282 16.091 13.3263 16.0906 13.327V11.7854C16.0906 11.6268 15.9629 11.4982 15.8053 11.4982H12.1564C11.9989 11.4982 11.8711 11.6268 11.8711 11.7854V25.1536C11.8711 25.3122 11.9988 25.4408 12.1563 25.4408L15.8847 25.4418C16.0423 25.4418 16.1701 25.3132 16.1701 25.1546V17.4314C16.1701 16.0964 17.2279 14.9879 18.5541 14.9728C19.2311 14.9651 19.8449 15.2382 20.2872 15.6837C20.7238 16.1228 20.9937 16.73 20.9937 17.4004V25.1555C20.9937 25.3141 21.1214 25.4427 21.2789 25.4428L25.0165 25.4437C25.1741 25.4437 25.3019 25.3151 25.3019 25.1565V15.9095H25.302Z" fill="white"/>
</svg>
