<svg width="31" height="30" viewBox="0 0 31 30" fill="none" xmlns="http://www.w3.org/2000/svg">
<path d="M30.6076 0H0.803711V30H30.6076V0Z" fill="#50ABF1"/>
<path d="M4.75222 22.2383C6.73574 23.5046 9.08863 24.2374 11.6108 24.2374C18.6966 24.2374 24.4406 18.4549 24.4406 11.3232C24.4406 11.1451 24.4369 10.9684 24.4301 10.7921C24.6864 10.5891 26.2715 9.31028 26.66 8.48815C26.66 8.48815 25.3728 9.02662 24.113 9.15348C24.1105 9.15348 24.1074 9.15407 24.1049 9.15407C24.1049 9.15407 24.1074 9.15282 24.1117 9.14972C24.2278 9.07165 25.8507 7.95961 26.0705 6.63462C26.0705 6.63462 25.16 7.12379 23.8852 7.55174C23.6741 7.62231 23.4532 7.69169 23.2254 7.75601C22.4037 6.87325 21.2357 6.32227 19.9392 6.32227C17.4523 6.32227 15.4371 8.35011 15.4371 10.8515C15.4371 11.2044 15.4775 11.548 15.5538 11.8778C15.2063 11.8635 9.91408 11.5648 6.31379 7.17619C6.31379 7.17619 4.16207 10.133 7.59605 13.1735C7.59605 13.1735 6.55217 13.1316 5.65157 12.59C5.65157 12.59 5.32079 16.1721 9.20968 17.088C9.20968 17.088 8.44446 17.3797 7.22367 17.1717C7.22367 17.1717 7.90636 20.066 11.3615 20.3365C11.3615 20.3365 8.62934 22.8209 4.75098 22.238L4.75222 22.2383Z" fill="white"/>
</svg>
