<svg width="31" height="30" viewBox="0 0 31 30" fill="none" xmlns="http://www.w3.org/2000/svg">
<path d="M30.4113 0H0.607422V30H30.4113V0Z" fill="#06C819"/>
<g clip-path="url(#clip0_17_1575)">
<path d="M15.1098 6H15.105C9.86698 6 5.60742 10.2607 5.60742 15.5C5.60742 17.5781 6.27717 19.5043 7.41598 21.0682L6.23205 24.5974L9.88361 23.4301C11.3858 24.4253 13.1777 25 15.1098 25C20.3479 25 24.6074 20.7381 24.6074 15.5C24.6074 10.2619 20.3479 6 15.1098 6ZM20.6376 19.4152C20.4084 20.0624 19.4988 20.5991 18.7732 20.7559C18.2769 20.8616 17.6285 20.9459 15.4459 20.041C12.654 18.8844 10.8562 16.0474 10.716 15.8634C10.5819 15.6793 9.58792 14.3612 9.58792 12.9979C9.58792 11.6347 10.2802 10.9709 10.5593 10.6859C10.7885 10.4519 11.1673 10.3451 11.5307 10.3451C11.6482 10.3451 11.7539 10.351 11.8489 10.3558C12.128 10.3676 12.2681 10.3843 12.4522 10.8248C12.6814 11.377 13.2395 12.7403 13.306 12.8804C13.3737 13.0205 13.4414 13.2105 13.3464 13.3946C13.2573 13.5846 13.1789 13.6689 13.0388 13.8304C12.8987 13.9919 12.7657 14.1154 12.6255 14.2887C12.4973 14.4396 12.3524 14.6011 12.5139 14.8801C12.6754 15.1532 13.2335 16.0641 14.0553 16.7956C15.1157 17.7396 15.9755 18.0413 16.283 18.1695C16.5122 18.2645 16.7854 18.2419 16.9528 18.0638C17.1654 17.8346 17.4278 17.4546 17.695 17.0806C17.885 16.8122 18.1249 16.7789 18.3766 16.8739C18.6331 16.963 19.9904 17.6339 20.2695 17.7729C20.5485 17.913 20.7326 17.9795 20.8003 18.0971C20.8668 18.2146 20.8668 18.7668 20.6376 19.4152Z" fill="white"/>
</g>
<defs>
<clipPath id="clip0_17_1575">
<rect width="20" height="20" fill="white" transform="translate(5.60742 5)"/>
</clipPath>
</defs>
</svg>
