<svg width="25" height="25" viewBox="0 0 25 25" fill="none" xmlns="http://www.w3.org/2000/svg">
<g clip-path="url(#clip0_16_757)">
<path d="M7.29163 13.5416C9.02079 13.5416 10.4166 12.1458 10.4166 10.4166C10.4166 8.68748 9.02079 7.29165 7.29163 7.29165C5.56246 7.29165 4.16663 8.68748 4.16663 10.4166C4.16663 12.1458 5.56246 13.5416 7.29163 13.5416ZM19.7916 7.29165H13.5416C12.3958 7.29165 11.4583 8.22915 11.4583 9.37498V14.5833H3.12496V6.24998C3.12496 5.67706 2.65621 5.20831 2.08329 5.20831C1.51038 5.20831 1.04163 5.67706 1.04163 6.24998V19.7916C1.04163 20.3646 1.51038 20.8333 2.08329 20.8333C2.65621 20.8333 3.12496 20.3646 3.12496 19.7916V17.7083H21.875V19.7916C21.875 20.3646 22.3437 20.8333 22.9166 20.8333C23.4895 20.8333 23.9583 20.3646 23.9583 19.7916V11.4583C23.9583 9.15623 22.0937 7.29165 19.7916 7.29165Z" fill="#303441"/>
</g>
<defs>
<clipPath id="clip0_16_757">
<rect width="25" height="25" fill="white"/>
</clipPath>
</defs>
</svg>
