<svg width="25" height="25" viewBox="0 0 25 25" fill="none" xmlns="http://www.w3.org/2000/svg">
<g clip-path="url(#clip0_16_764)">
<path d="M19.7083 6.2604C19.5 5.64581 18.9167 5.20831 18.2292 5.20831H6.77083C6.08333 5.20831 5.51042 5.64581 5.29167 6.2604L3.23958 12.1666C3.16667 12.3854 3.125 12.6146 3.125 12.8541V20.3125C3.125 21.1771 3.82292 21.875 4.6875 21.875C5.55208 21.875 6.25 21.1771 6.25 20.3125V19.7916H18.75V20.3125C18.75 21.1666 19.4479 21.875 20.3125 21.875C21.1667 21.875 21.875 21.1771 21.875 20.3125V12.8541C21.875 12.625 21.8333 12.3854 21.7604 12.1666L19.7083 6.2604ZM6.77083 16.6666C5.90625 16.6666 5.20833 15.9687 5.20833 15.1041C5.20833 14.2396 5.90625 13.5416 6.77083 13.5416C7.63542 13.5416 8.33333 14.2396 8.33333 15.1041C8.33333 15.9687 7.63542 16.6666 6.77083 16.6666ZM18.2292 16.6666C17.3646 16.6666 16.6667 15.9687 16.6667 15.1041C16.6667 14.2396 17.3646 13.5416 18.2292 13.5416C19.0937 13.5416 19.7917 14.2396 19.7917 15.1041C19.7917 15.9687 19.0937 16.6666 18.2292 16.6666ZM5.20833 11.4583L6.53125 7.47915C6.67708 7.06248 7.07292 6.77081 7.52083 6.77081H17.4792C17.9271 6.77081 18.3229 7.06248 18.4687 7.47915L19.7917 11.4583H5.20833Z" fill="#303441"/>
</g>
<defs>
<clipPath id="clip0_16_764">
<rect width="25" height="25" fill="white"/>
</clipPath>
</defs>
</svg>
