<svg width="25" height="25" viewBox="0 0 25 25" fill="none" xmlns="http://www.w3.org/2000/svg">
<path d="M19.4922 15.2734C19.4922 15.625 19.2188 15.9375 18.8281 15.9375H4.0625C3.71094 15.9375 3.39844 15.6641 3.39844 15.2734C3.39844 14.9219 3.67187 14.6094 4.0625 14.6094H18.8281C19.1797 14.6484 19.4922 14.9219 19.4922 15.2734ZM18.2812 13.8672H4.60938C4.80469 10.1172 7.8125 7.10938 11.4453 7.10938C15.1172 7.10938 18.0859 10.1172 18.2812 13.8672ZM21.5625 0V1.5625H12.7734C12.4609 1.5625 12.2266 1.79688 12.2266 2.10938V6.44531L11.8359 6.40625C11.7187 6.40625 11.6016 6.40625 11.4453 6.40625C11.3281 6.40625 11.2109 6.40625 11.0547 6.40625L10.6641 6.44531V2.10938C10.6641 0.9375 11.6016 0 12.7734 0H21.5625ZM5 19.3359C4.80469 19.3359 4.60938 19.1797 4.60938 18.9453V18.1641C4.60938 17.9688 4.76563 17.7734 5 17.7734C5.19531 17.7734 5.39063 17.9297 5.39063 18.1641V18.9453C5.39063 19.1797 5.23438 19.3359 5 19.3359ZM7.14844 19.3359C6.95312 19.3359 6.75781 19.1797 6.75781 18.9453V18.1641C6.75781 17.9688 6.91406 17.7734 7.14844 17.7734C7.34375 17.7734 7.53906 17.9297 7.53906 18.1641V18.9453C7.53906 19.1797 7.38281 19.3359 7.14844 19.3359ZM9.29688 19.3359C9.10156 19.3359 8.90625 19.1797 8.90625 18.9453V18.1641C8.90625 17.9688 9.0625 17.7734 9.29688 17.7734C9.49219 17.7734 9.6875 17.9297 9.6875 18.1641V18.9453C9.6875 19.1797 9.53125 19.3359 9.29688 19.3359ZM11.4453 19.3359C11.25 19.3359 11.0547 19.1797 11.0547 18.9453V18.1641C11.0547 17.9688 11.2109 17.7734 11.4453 17.7734C11.6406 17.7734 11.8359 17.9297 11.8359 18.1641V18.9453C11.8359 19.1797 11.6406 19.3359 11.4453 19.3359ZM13.5937 19.3359C13.3984 19.3359 13.2031 19.1797 13.2031 18.9453V18.1641C13.2031 17.9688 13.3594 17.7734 13.5937 17.7734C13.7891 17.7734 13.9844 17.9297 13.9844 18.1641V18.9453C13.9844 19.1797 13.7891 19.3359 13.5937 19.3359ZM15.7422 19.3359C15.5469 19.3359 15.3516 19.1797 15.3516 18.9453V18.1641C15.3516 17.9688 15.5078 17.7734 15.7422 17.7734C15.9375 17.7734 16.1328 17.9297 16.1328 18.1641V18.9453C16.1328 19.1797 15.9375 19.3359 15.7422 19.3359ZM17.8906 19.3359C17.6953 19.3359 17.5 19.1797 17.5 18.9453V18.1641C17.5 17.9688 17.6562 17.7734 17.8906 17.7734C18.0859 17.7734 18.2812 17.9297 18.2812 18.1641V18.9453C18.2812 19.1797 18.0859 19.3359 17.8906 19.3359ZM6.09375 22.1875C5.89844 22.1875 5.70313 22.0312 5.70313 21.7969V21.0156C5.70313 20.8203 5.85938 20.625 6.09375 20.625C6.28906 20.625 6.48438 20.7812 6.48438 21.0156V21.7969C6.44531 21.9922 6.28906 22.1875 6.09375 22.1875ZM8.24219 22.1875C8.04688 22.1875 7.85156 22.0312 7.85156 21.7969V21.0156C7.85156 20.8203 8.00781 20.625 8.24219 20.625C8.4375 20.625 8.63281 20.7812 8.63281 21.0156V21.7969C8.59375 21.9922 8.4375 22.1875 8.24219 22.1875ZM10.3906 22.1875C10.1953 22.1875 10 22.0312 10 21.7969V21.0156C10 20.8203 10.1563 20.625 10.3906 20.625C10.5859 20.625 10.7813 20.7812 10.7813 21.0156V21.7969C10.7422 21.9922 10.5859 22.1875 10.3906 22.1875ZM12.5391 22.1875C12.3437 22.1875 12.1484 22.0312 12.1484 21.7969V21.0156C12.1484 20.8203 12.3047 20.625 12.5391 20.625C12.7344 20.625 12.9297 20.7812 12.9297 21.0156V21.7969C12.8906 21.9922 12.7344 22.1875 12.5391 22.1875ZM14.6484 22.1875C14.4531 22.1875 14.2578 22.0312 14.2578 21.7969V21.0156C14.2578 20.8203 14.4141 20.625 14.6484 20.625C14.8438 20.625 15.0391 20.7812 15.0391 21.0156V21.7969C15.0391 21.9922 14.8828 22.1875 14.6484 22.1875ZM16.7969 22.1875C16.6016 22.1875 16.4062 22.0312 16.4062 21.7969V21.0156C16.4062 20.8203 16.5625 20.625 16.7969 20.625C16.9922 20.625 17.1875 20.7812 17.1875 21.0156V21.7969C17.1875 21.9922 17.0312 22.1875 16.7969 22.1875ZM5 25C4.80469 25 4.60938 24.8438 4.60938 24.6094V23.8281C4.60938 23.6328 4.76563 23.4375 5 23.4375C5.19531 23.4375 5.39063 23.5938 5.39063 23.8281V24.6094C5.39063 24.8438 5.23438 25 5 25ZM7.14844 25C6.95312 25 6.75781 24.8438 6.75781 24.6094V23.8281C6.75781 23.6328 6.91406 23.4375 7.14844 23.4375C7.34375 23.4375 7.53906 23.5938 7.53906 23.8281V24.6094C7.53906 24.8438 7.38281 25 7.14844 25ZM9.29688 25C9.10156 25 8.90625 24.8438 8.90625 24.6094V23.8281C8.90625 23.6328 9.0625 23.4375 9.29688 23.4375C9.49219 23.4375 9.6875 23.5938 9.6875 23.8281V24.6094C9.6875 24.8438 9.53125 25 9.29688 25ZM11.4453 25C11.25 25 11.0547 24.8438 11.0547 24.6094V23.8281C11.0547 23.6328 11.2109 23.4375 11.4453 23.4375C11.6406 23.4375 11.8359 23.5938 11.8359 23.8281V24.6094C11.8359 24.8438 11.6406 25 11.4453 25ZM13.5937 25C13.3984 25 13.2031 24.8438 13.2031 24.6094V23.8281C13.2031 23.6328 13.3594 23.4375 13.5937 23.4375C13.7891 23.4375 13.9844 23.5938 13.9844 23.8281V24.6094C13.9844 24.8438 13.7891 25 13.5937 25ZM15.7422 25C15.5469 25 15.3516 24.8438 15.3516 24.6094V23.8281C15.3516 23.6328 15.5078 23.4375 15.7422 23.4375C15.9375 23.4375 16.1328 23.5938 16.1328 23.8281V24.6094C16.1328 24.8438 15.9375 25 15.7422 25ZM17.8906 25C17.6953 25 17.5 24.8438 17.5 24.6094V23.8281C17.5 23.6328 17.6562 23.4375 17.8906 23.4375C18.0859 23.4375 18.2812 23.5938 18.2812 23.8281V24.6094C18.2812 24.8438 18.0859 25 17.8906 25Z" fill="#303441"/>
</svg>
