<svg width="25" height="25" viewBox="0 0 25 25" fill="none" xmlns="http://www.w3.org/2000/svg">
<path d="M22.9167 13.5416C22.9167 13.8179 22.807 14.0829 22.6116 14.2782C22.4163 14.4736 22.1513 14.5833 21.875 14.5833H20.8334V17.7083C20.8334 18.2608 20.6139 18.7908 20.2232 19.1815C19.8325 19.5722 19.3026 19.7916 18.75 19.7916V21.875C18.75 22.1512 18.6403 22.4162 18.4449 22.6115C18.2496 22.8069 17.9846 22.9166 17.7084 22.9166C17.4321 22.9166 17.1672 22.8069 16.9718 22.6115C16.7765 22.4162 16.6667 22.1512 16.6667 21.875V19.7916H8.33337V21.875C8.33337 22.1512 8.22363 22.4162 8.02828 22.6115C7.83293 22.8069 7.56797 22.9166 7.29171 22.9166C7.01544 22.9166 6.75049 22.8069 6.55514 22.6115C6.35979 22.4162 6.25004 22.1512 6.25004 21.875V19.7916C5.69751 19.7916 5.1676 19.5722 4.7769 19.1815C4.3862 18.7908 4.16671 18.2608 4.16671 17.7083V14.5833H3.12504C2.84877 14.5833 2.58382 14.4736 2.38847 14.2782C2.19312 14.0829 2.08337 13.8179 2.08337 13.5416C2.08337 13.2654 2.19312 13.0004 2.38847 12.8051C2.58382 12.6097 2.84877 12.5 3.12504 12.5H4.16671V6.24998C4.16671 5.14491 4.60569 4.0851 5.3871 3.3037C6.1685 2.5223 7.2283 2.08331 8.33337 2.08331H10.4167C11.369 2.08417 12.2922 2.41118 13.0327 3.00991C13.7732 3.60864 14.2863 4.44296 14.4865 5.37394C15.1285 5.59441 15.6847 6.01159 16.0761 6.56623C16.4675 7.12087 16.6742 7.78474 16.6667 8.46352V9.33123C16.6723 9.61324 16.5657 9.88593 16.3704 10.0894C16.1751 10.2929 15.907 10.4106 15.625 10.4166H11.4584C11.1764 10.4106 10.9083 10.2929 10.713 10.0894C10.5177 9.88593 10.4111 9.61324 10.4167 9.33123V8.64581C10.4079 7.98945 10.5846 7.34394 10.9264 6.78355C11.2683 6.22316 11.7614 5.77066 12.349 5.4781C12.1948 5.09149 11.9283 4.75993 11.5839 4.52618C11.2395 4.29243 10.8329 4.1672 10.4167 4.16665H8.33337C7.78084 4.16665 7.25094 4.38614 6.86023 4.77684C6.46953 5.16754 6.25004 5.69745 6.25004 6.24998V12.5H21.875C22.1513 12.5 22.4163 12.6097 22.6116 12.8051C22.807 13.0004 22.9167 13.2654 22.9167 13.5416Z" fill="#303441"/>
</svg>
