<svg width="20" height="20" viewBox="0 0 20 20" fill="none" xmlns="http://www.w3.org/2000/svg">
<path d="M14.9998 0.00416134L12.4063 0C9.49251 0 7.60951 1.9319 7.60951 4.92203V7.19141H5.00181C4.77647 7.19141 4.59399 7.37409 4.59399 7.59943V10.8875C4.59399 11.1128 4.77668 11.2953 5.00181 11.2953H7.60951V19.5922C7.60951 19.8175 7.79198 20 8.01732 20H11.4196C11.645 20 11.8274 19.8173 11.8274 19.5922V11.2953H14.8764C15.1018 11.2953 15.2843 11.1128 15.2843 10.8875L15.2855 7.59943C15.2855 7.49123 15.2424 7.38762 15.1661 7.31105C15.0897 7.23448 14.9857 7.19141 14.8775 7.19141H11.8274V5.26763C11.8274 4.34298 12.0478 3.87358 13.2523 3.87358L14.9994 3.87295C15.2245 3.87295 15.407 3.69027 15.407 3.46514V0.411972C15.407 0.187052 15.2248 0.00457747 14.9998 0.00416134Z" fill="white"/>
</svg>
