<svg width="20" height="20" viewBox="0 0 20 20" fill="none" xmlns="http://www.w3.org/2000/svg">
<path d="M19.9905 15.7839C20.0328 16.1088 19.9339 16.3912 19.6941 16.6313L16.8781 19.4278C16.7511 19.5691 16.5852 19.6892 16.3806 19.788C16.1759 19.8869 15.9748 19.9505 15.7773 19.9787C15.7631 19.9787 15.7207 19.9823 15.6501 19.9894C15.5796 19.9964 15.4879 20 15.3749 20C15.1067 20 14.6726 19.9541 14.0727 19.8623C13.4728 19.7704 12.7389 19.5444 11.8709 19.1843C11.0027 18.8241 10.0182 18.2838 8.91723 17.5635C7.81629 16.8433 6.6447 15.8545 5.40258 14.5974C4.41452 13.6229 3.59585 12.6907 2.94656 11.8009C2.29726 10.911 1.775 10.0883 1.37978 9.33261C0.984526 8.57696 0.68811 7.89194 0.490499 7.27753C0.292888 6.66312 0.158795 6.13346 0.0882192 5.68855C0.0176438 5.24363 -0.0105863 4.89406 0.00352877 4.63982C0.0176438 4.38559 0.0247014 4.24434 0.0247014 4.21609C0.0529315 4.01835 0.116449 3.81708 0.215255 3.61228C0.31406 3.40748 0.434038 3.24152 0.575189 3.1144L3.39115 0.29661C3.58876 0.0988699 3.8146 -2.22849e-10 4.06867 -2.22849e-10C4.25217 -2.22849e-10 4.41449 0.052966 4.55564 0.158898C4.69679 0.26483 4.81677 0.39548 4.91557 0.550847L7.18104 4.85169C7.30808 5.07767 7.34337 5.32485 7.28691 5.59321C7.23044 5.86157 7.11047 6.08756 6.92697 6.27118L5.88951 7.30931C5.86128 7.33756 5.83658 7.38346 5.81541 7.44702C5.79424 7.51058 5.78365 7.56355 5.78365 7.60592C5.84011 7.90253 5.96715 8.24151 6.16476 8.62287C6.33414 8.96185 6.59527 9.37498 6.94814 9.86227C7.30102 10.3496 7.8021 10.911 8.4514 11.5466C9.08658 12.1963 9.65118 12.7012 10.1452 13.0615C10.6391 13.4215 11.0521 13.6864 11.3838 13.8559C11.7155 14.0254 11.9696 14.1278 12.146 14.163L12.4106 14.216C12.4388 14.216 12.4848 14.2054 12.5483 14.1842C12.6118 14.163 12.6577 14.1383 12.6859 14.11L13.8927 12.8812C14.1469 12.6553 14.4432 12.5423 14.782 12.5423C15.022 12.5423 15.2125 12.5846 15.3536 12.6694H15.3748L19.4611 15.0847C19.7576 15.2684 19.934 15.5014 19.9905 15.7839Z" fill="#F42046"/>
</svg>
