<svg width="200" height="95" viewBox="0 0 200 95" fill="none" xmlns="http://www.w3.org/2000/svg">
<path fill-rule="evenodd" clip-rule="evenodd" d="M138.228 0H117.406C116.515 1.83425 116.279 4.69268 116.041 7.5892C71.4637 7.96358 81.8374 4.10594 69.3713 20.4769C66.0236 24.8729 62.2436 29.2609 58.9059 33.9671C56.0533 37.9894 39.4757 59.4655 38.8982 61.5045L48.8849 61.9027L82.9458 16.8958C86.466 18.5886 112.564 52.7926 117.389 58.3547C121.794 63.4333 145.987 59.2442 151.64 58.1368C162.741 55.9623 170.892 52.647 180.684 48.7499L154.391 13.7864C149.983 7.89221 151.695 9.10402 139.042 8.91597L138.228 0Z" fill="#F42046"/>
<path fill-rule="evenodd" clip-rule="evenodd" d="M122.48 78.4784C94.0198 78.4784 72.6839 68.9553 42.6357 68.9553C27.9411 68.9553 6.8183 72.3138 2.25037 82.5016C10.4168 77.8943 15.3163 75.2649 27.8958 75.218C60.6221 75.0956 78.4327 91.8445 110.817 94.3668C130.761 95.9204 152.15 89.5737 165.771 80.9677C177.703 73.4282 194.888 58.463 197.89 44.672L196.113 46.3033C195.671 46.7357 194.979 47.4525 194.577 47.8851C189.558 53.2972 190.72 52.6332 184.115 58.3185C168.634 71.6441 144.03 78.4784 122.48 78.4784Z" fill="#A9ACAF"/>
<path fill-rule="evenodd" clip-rule="evenodd" d="M8.61404 64.0658C20.3906 63.3118 17.9499 63.6122 23.653 56.7888C28.9831 50.4116 51.5055 22.0548 54.2635 20.3948C57.9958 22.9222 57.9314 24.9399 61.46 26.2516C63.2785 23.6462 69.6407 16.0535 70.439 13.3192C65.85 13.1173 61.1425 13.1393 56.5398 13.086C49.8371 13.0087 51.1561 14.1212 47.6175 18.1034C43.2405 23.0286 38.8213 27.8511 34.2639 33.3591C32.0436 36.0428 30.1987 38.2074 27.9615 40.9864C25.7716 43.7067 23.6219 45.7774 21.4282 48.3832C18.8302 51.4687 10.0232 60.8367 8.61404 64.0658Z" fill="#F42046"/>
<path fill-rule="evenodd" clip-rule="evenodd" d="M85.2901 57.7646L92.9852 57.8798L93.1986 46.4353L85.3429 46.3948L85.2901 57.7646Z" fill="#A9ACAF"/>
<path fill-rule="evenodd" clip-rule="evenodd" d="M75.2333 57.8657L82.5964 57.808L82.8453 46.5424L75.2137 46.3138L75.2333 57.8657Z" fill="#A9ACAF"/>
<path fill-rule="evenodd" clip-rule="evenodd" d="M85.2625 43.7584L93.0228 43.8661C93.7079 37.3409 91.6103 33.15 85.5158 32.7982L85.2625 43.7584Z" fill="#A9ACAF"/>
<path fill-rule="evenodd" clip-rule="evenodd" d="M75.3476 43.8057L82.6768 43.7894L82.7082 32.8444C76.8049 33.0677 74.7393 37.3994 75.3476 43.8057Z" fill="#A9ACAF"/>
</svg>
